# xmcd CD database file
#
# Track frame offsets:
#	150
#	14001
#	29158
#	47582
#
# Disc length: 899 seconds
#
# Revision: 2
# Processed by: cddbd v1.5.1PL0 Copyright (c) Steve Scherf et al.
# Submitted via: CDex 1.51
#
DISCID=31038104
DTITLE=Painkillerjayne - Live at The Marquee
DYEAR=2005
DGENRE=Metal
TTITLE0=River Run Red
TTITLE1=Niquill on Nightstands
TTITLE2=Corinthian Girl
TTITLE3=At The Wake
EXTD=YEAR: 2005
EXTT0=
EXTT1=
EXTT2=
EXTT3=
PLAYORDER=
